<svg xmlns="http://www.w3.org/2000/svg" xmlns:svg="http://www.w3.org/2000/svg" id="svg2" width="299.438" height="87.375" version="1.1"><defs id="defs4"><marker id="TriangleOutL" orient="auto" overflow="visible" refX="0" refY="0"><path id="path3946" fill-rule="evenodd" stroke="#000" stroke-width="1pt" d="M 5.77,0.0 L -2.88,5.0 L -2.88,-5.0 L 5.77,0.0 z" transform="scale(0.8)"/></marker><marker id="TriangleInL" orient="auto" overflow="visible" refX="0" refY="0"><path id="path3937" fill-rule="evenodd" stroke="#000" stroke-width="1pt" d="M 5.77,0.0 L -2.88,5.0 L -2.88,-5.0 L 5.77,0.0 z" transform="scale(-0.8)"/></marker><marker id="Arrow1Send" orient="auto" overflow="visible" refX="0" refY="0"><path id="path3819" fill-rule="evenodd" stroke="#000" stroke-width="1pt" d="M 0.0,0.0 L 5.0,-5.0 L -12.5,0.0 L 5.0,5.0 L 0.0,0.0 z" transform="scale(0.2) rotate(180) translate(6,0)"/></marker><marker id="Arrow1Mend" orient="auto" overflow="visible" refX="0" refY="0"><path id="path3813" fill-rule="evenodd" stroke="#000" stroke-width="1pt" d="M 0.0,0.0 L 5.0,-5.0 L -12.5,0.0 L 5.0,5.0 L 0.0,0.0 z" transform="scale(0.4) rotate(180) translate(10,0)"/></marker><marker id="Arrow1Lend" orient="auto" overflow="visible" refX="0" refY="0"><path id="path3807" fill-rule="evenodd" stroke="#000" stroke-width="1pt" d="M 0.0,0.0 L 5.0,-5.0 L -12.5,0.0 L 5.0,5.0 L 0.0,0.0 z" transform="scale(0.8) rotate(180) translate(12.5,0)"/></marker></defs><metadata id="metadata7"/><g id="layer1" transform="translate(-14.5,-110.48718)"><text id="text2987" x="30" y="132.362" fill="#000" fill-opacity="1" stroke="none" font-family="Bitstream Vera Sans" font-size="12" font-stretch="normal" font-style="normal" font-variant="normal" font-weight="normal" letter-spacing="0" word-spacing="0" xml:space="preserve" style="line-height:125%;-inkscape-font-specification:Bitstream Vera Sans"><tspan id="tspan2991" x="30" y="132.362">NONE</tspan></text><text id="text2995" x="100" y="132.362" fill="#000" fill-opacity="1" stroke="none" font-family="Bitstream Vera Sans" font-size="12" font-stretch="normal" font-style="normal" font-variant="normal" font-weight="normal" letter-spacing="0" word-spacing="0" xml:space="preserve" style="line-height:125%;-inkscape-font-specification:Bitstream Vera Sans"><tspan id="tspan2997" x="100" y="132.362">SQUARE</tspan></text><text id="text2999" x="170" y="132.362" fill="#000" fill-opacity="1" stroke="none" font-family="Bitstream Vera Sans" font-size="12" font-stretch="normal" font-style="normal" font-variant="normal" font-weight="normal" letter-spacing="0" word-spacing="0" xml:space="preserve" style="line-height:125%;-inkscape-font-specification:Bitstream Vera Sans"><tspan id="tspan3001" x="170" y="132.362">ROUND</tspan></text><text id="text3007" x="240" y="132.362" fill="#000" fill-opacity="1" stroke="none" font-family="Bitstream Vera Sans" font-size="12" font-stretch="normal" font-style="normal" font-variant="normal" font-weight="normal" letter-spacing="0" word-spacing="0" xml:space="preserve" style="line-height:125%;-inkscape-font-specification:Bitstream Vera Sans"><tspan id="tspan3009" x="240" y="132.362">TRIANGLE</tspan></text><path id="path3011" fill="none" stroke="#000" stroke-dasharray="none" stroke-linecap="round" stroke-linejoin="round" stroke-miterlimit="4" stroke-opacity="1" stroke-width="10" marker-end="none" d="m 170,152.36218 50,30"/><path id="path3792" fill="none" stroke="#000" stroke-dasharray="none" stroke-linecap="butt" stroke-linejoin="miter" stroke-miterlimit="4" stroke-opacity="1" stroke-width="10" marker-mid="none" d="m 30,152.36218 50,30"/><path id="path3794" fill="none" stroke="#000" stroke-dasharray="none" stroke-linecap="square" stroke-linejoin="bevel" stroke-miterlimit="4" stroke-opacity="1" stroke-width="10" d="m 100,152.36218 50,30"/><path id="path3796" fill="#000" fill-opacity="1" stroke="none" stroke-width="10" d="m 242.5625,148.0625 -6.6944,1.53643 1.5694,7.05732 50,30 6.99429,-1.9784 -1.86929,-6.61535 z" baseline-shift="baseline" color="#000" direction="ltr" display="inline" enable-background="accumulate" font-family="Sans" font-size="medium" font-stretch="normal" font-style="normal" font-variant="normal" font-weight="normal" letter-spacing="normal" overflow="visible" text-anchor="start" text-decoration="none" visibility="visible" word-spacing="normal" writing-mode="lr-tb" style="text-indent:0;text-align:start;line-height:normal;text-transform:none;block-progression:tb;marker:none;-inkscape-font-specification:Sans"/><path id="path4628" fill="none" stroke="#ff4a00" stroke-dasharray="none" stroke-dashoffset="0" stroke-linecap="butt" stroke-linejoin="miter" stroke-miterlimit="3" stroke-opacity="1" stroke-width="1" d="m 35,152.36218 c 0,2.76143 -2.238576,5 -5,5 -2.761424,0 -5,-2.23857 -5,-5 0,-2.76142 2.238576,-5 5,-5 2.761424,0 5,2.23858 5,5 z" opacity=".766"/><path id="path4630" fill="none" stroke="#ff4a00" stroke-dasharray="none" stroke-dashoffset="0" stroke-linecap="butt" stroke-linejoin="miter" stroke-miterlimit="3" stroke-opacity="1" stroke-width="1" d="m 35,152.36218 c 0,2.76143 -2.238576,5 -5,5 -2.761424,0 -5,-2.23857 -5,-5 0,-2.76142 2.238576,-5 5,-5 2.761424,0 5,2.23858 5,5 z" opacity=".766" transform="translate(50,30)"/><path id="path4634" fill="none" stroke="#ff4a00" stroke-dasharray="none" stroke-dashoffset="0" stroke-linecap="butt" stroke-linejoin="miter" stroke-miterlimit="3" stroke-opacity="1" stroke-width="1" d="m 35,152.36218 c 0,2.76143 -2.238576,5 -5,5 -2.761424,0 -5,-2.23857 -5,-5 0,-2.76142 2.238576,-5 5,-5 2.761424,0 5,2.23858 5,5 z" opacity=".766" transform="translate(70,0)"/><path id="path4636" fill="none" stroke="#ff4a00" stroke-dasharray="none" stroke-dashoffset="0" stroke-linecap="butt" stroke-linejoin="miter" stroke-miterlimit="3" stroke-opacity="1" stroke-width="1" d="m 35,152.36218 c 0,2.76143 -2.238576,5 -5,5 -2.761424,0 -5,-2.23857 -5,-5 0,-2.76142 2.238576,-5 5,-5 2.761424,0 5,2.23858 5,5 z" opacity=".766" transform="translate(120,30)"/><path id="path4640" fill="none" stroke="#ff4a00" stroke-dasharray="none" stroke-dashoffset="0" stroke-linecap="butt" stroke-linejoin="miter" stroke-miterlimit="3" stroke-opacity="1" stroke-width="1" d="m 35,152.36218 c 0,2.76143 -2.238576,5 -5,5 -2.761424,0 -5,-2.23857 -5,-5 0,-2.76142 2.238576,-5 5,-5 2.761424,0 5,2.23858 5,5 z" opacity=".766" transform="translate(140,0)"/><path id="path4642" fill="none" stroke="#ff4a00" stroke-dasharray="none" stroke-dashoffset="0" stroke-linecap="butt" stroke-linejoin="miter" stroke-miterlimit="3" stroke-opacity="1" stroke-width="1" d="m 35,152.36218 c 0,2.76143 -2.238576,5 -5,5 -2.761424,0 -5,-2.23857 -5,-5 0,-2.76142 2.238576,-5 5,-5 2.761424,0 5,2.23858 5,5 z" opacity=".766" transform="translate(190,30)"/><path id="path4646" fill="none" stroke="#ff4a00" stroke-dasharray="none" stroke-dashoffset="0" stroke-linecap="butt" stroke-linejoin="miter" stroke-miterlimit="3" stroke-opacity="1" stroke-width="1" d="m 35,152.36218 c 0,2.76143 -2.238576,5 -5,5 -2.761424,0 -5,-2.23857 -5,-5 0,-2.76142 2.238576,-5 5,-5 2.761424,0 5,2.23858 5,5 z" opacity=".766" transform="translate(210,0)"/><path id="path4648" fill="none" stroke="#ff4a00" stroke-dasharray="none" stroke-dashoffset="0" stroke-linecap="butt" stroke-linejoin="miter" stroke-miterlimit="3" stroke-opacity="1" stroke-width="1" d="m 35,152.36218 c 0,2.76143 -2.238576,5 -5,5 -2.761424,0 -5,-2.23857 -5,-5 0,-2.76142 2.238576,-5 5,-5 2.761424,0 5,2.23858 5,5 z" opacity=".766" transform="translate(260,30)"/></g></svg>